# xmcd
#
# Track frame offsets:
#	150
#	30389
#	45291
#	67143
#	80107
#	93484
#	106961
#	120131
#	132708
#	144697
#	158661
#	174899
#	186246
#	218399
#	232346
#	242280
#	261314
#	272814
#	283964
#	301080
#
# Disc length: 4189
#
# Revision: 1
# Processed by: cddbd v1.5.1PL0 Copyright (c) Steve Scherf et al.
# Submitted via: ExactAudioCopy v0.90b4
# Normalized: r0:DSETVAR1,TDELIM( - )
#
DISCID=1a105b14
DTITLE=Various Artist - Western Country and Folk Songs
DYEAR=1998
DGENRE=Folk
TTITLE0=Dan Fogelberg - Sutter's Mill
TTITLE1=John Denver - Take Me Home Country Road
TTITLE2=Rebort Flank - Killing Me Softly With His Song
TTITLE3=Bobby Bare - 500 Miles
TTITLE4=Ray Perterson - Tell Laura I Love Her
TTITLE5=Lynn Anderson - Rosegarden
TTITLE6=Jonnie Ray - Just Walk In The Rain
TTITLE7=Connie Francis - Never On Sunday
TTITLE8=Frankie Laines - Rose Rose I Love You
TTITLE9=Marilyn Monroe - When I Fall In Love
TTITLE10=Aretha Franklin - I Say A Littel Prayer
TTITLE11=Linda Ronatadt - It's So Easy
TTITLE12=Nino and Rachele Cappeli - This Masquerde
TTITLE13=Son Mckenxie - San Francisco
TTITLE14=Cliff Richard - Summer Holiday
TTITLE15=America - A Horse With No Name
TTITLE16=Carly Simon and James Taylor - Devoted To You
TTITLE17=Everly Brothers - All I Have To Do Is Dream
TTITLE18=Elaine Page - Unchained Melody
TTITLE19=Dolly Parton - I'll Always Love You
EXTD=
EXTT0=
EXTT1=
EXTT2=
EXTT3=
EXTT4=
EXTT5=
EXTT6=
EXTT7=
EXTT8=
EXTT9=
EXTT10=
EXTT11=
EXTT12=
EXTT13=
EXTT14=
EXTT15=
EXTT16=
EXTT17=
EXTT18=
EXTT19=
PLAYORDER=
